<svg id="Layer_1" data-name="Layer 1" xmlns="http://www.w3.org/2000/svg" viewBox="0 0 100 100"><defs><style>.cls-1{fill:#4caf50;}.cls-2{fill:#fff;}</style></defs><rect class="cls-1" width="100" height="100" rx="50"/><path class="cls-2" d="M50,88.89a38.67,38.67,0,0,1-21.67-6.6,2,2,0,0,1-.71-2.63A2,2,0,0,1,30.41,79,35,35,0,0,0,81.53,34.82a2.05,2.05,0,0,1,.66-2.66A1.94,1.94,0,0,1,85,33a38.4,38.4,0,0,1,3.93,17A38.94,38.94,0,0,1,50,88.89Z"/><path class="cls-2" d="M25,78.18a39.37,39.37,0,0,1,2.36,5.51,1,1,0,0,0,1.84,0l.86-2.51,0,0,2.3-1.39a1,1,0,0,0-.38-1.8,39.12,39.12,0,0,1-5.88-1.13A1,1,0,0,0,25,78.18Z"/><path class="cls-2" d="M16.79,68.13A1.94,1.94,0,0,1,15,67a38.4,38.4,0,0,1-3.93-17A38.89,38.89,0,0,1,71.67,17.71a2,2,0,0,1,.71,2.63,1.94,1.94,0,0,1-2.79.66A35,35,0,0,0,18.48,65.2a2,2,0,0,1-.65,2.63A2,2,0,0,1,16.79,68.13Z"/><path class="cls-2" d="M75,21.82a39.37,39.37,0,0,1-2.36-5.51,1,1,0,0,0-1.84,0l-.86,2.51,0,.05-2.31,1.39a1,1,0,0,0,.39,1.8,39.12,39.12,0,0,1,5.88,1.13A1,1,0,0,0,75,21.82Z"/><path class="cls-2" d="M44.11,63.74a2,2,0,0,1-1.38-3.33L66.31,36.83a1.95,1.95,0,0,1,2.75,2.76L45.48,63.17A1.94,1.94,0,0,1,44.11,63.74Z"/><path class="cls-2" d="M44.11,63.74a2,2,0,0,1-1.38-.57L30.94,51.38a1.95,1.95,0,1,1,2.75-2.76L45.48,60.41a2,2,0,0,1-1.37,3.33Z"/></svg>